<svg width="318" height="116" viewBox="0 0 318 116" fill="none" xmlns="http://www.w3.org/2000/svg">
<g clip-path="url(#clip0_101_3487)">
<g opacity="0.48">
<path d="M5.82007 115.074V18.308H58.4009C72.143 18.308 82.325 19.9765 88.9348 23.3187C95.5507 26.661 98.8556 32.3576 98.8556 40.4188V44.6107C98.8556 45.3016 98.728 46.3713 98.4729 47.83C98.2116 49.2887 97.8471 50.4352 97.3672 51.2644C96.8872 52.0935 96.1704 53.1172 95.2166 54.3302C94.2628 55.5432 93.0842 56.5362 91.6869 57.309C90.2896 58.0768 88.5278 58.8292 86.3954 59.556C84.263 60.2827 81.8025 60.8304 79.0079 61.1938C83.048 61.721 86.5047 62.632 89.3722 63.9269C92.2397 65.2219 94.4086 66.5884 95.8788 68.0267C97.349 69.4649 98.5032 71.2358 99.3538 73.3394C100.198 75.443 100.69 77.2088 100.842 78.6265C100.988 80.0443 101.061 81.7436 101.061 83.7294C101.061 88.8323 100.417 93.2033 99.129 96.8475C97.841 100.492 95.6175 103.742 92.4584 106.598C89.2993 109.454 84.907 111.578 79.2874 112.975C73.6678 114.372 66.6996 115.068 58.3948 115.068H5.82007V115.074ZM43.7414 54.755H51.6756C53.5832 54.755 55.1507 54.5349 56.3596 54.0845C57.5747 53.6393 58.4373 52.9995 58.9476 52.1703C59.464 51.3412 59.7921 50.5888 59.9379 49.9234C60.0837 49.2529 60.1566 48.4545 60.1566 47.5229V37.9262C60.1566 34.8502 57.3985 33.3096 51.8883 33.3096H43.7293V54.7499L43.7414 54.755ZM43.7414 69.818V97.8814C45.5032 97.9633 46.7912 98.0042 47.5992 98.0042C57.6658 98.0042 62.7021 95.614 62.7021 90.8387V78.7494C62.7021 75.6733 61.7665 73.4162 59.8893 71.9779C58.0121 70.5397 55.017 69.8232 50.9041 69.8232H43.7414V69.818Z" fill="#A168AC"/>
<path d="M153.976 71.0362V115.074H114.73V18.308H174.255C180.354 18.308 185.573 18.7635 189.911 19.6746C194.248 20.5856 197.663 21.7782 200.159 23.2573C202.656 24.7365 204.625 26.7019 206.059 29.1484C207.492 31.6001 208.428 34.0466 208.871 36.4982C209.315 38.9499 209.534 41.9133 209.534 45.3989C209.534 47.221 209.479 48.7104 209.369 49.862C209.26 51.0136 208.853 52.4723 208.154 54.233C207.456 55.9937 206.484 57.4626 205.232 58.6347C203.981 59.8119 202.091 60.9635 199.558 62.0946C197.025 63.2309 193.951 64.101 190.354 64.7049C193.951 65.0683 196.927 65.749 199.285 66.742C201.636 67.7349 203.325 68.9582 204.357 70.4169C205.384 71.8756 206.083 73.2217 206.453 74.4552C206.818 75.6887 207.006 77.0757 207.006 78.6163C207.006 94.6108 206.86 106.762 206.563 115.063H168.641V77.3419C168.641 75.8422 168.368 74.6497 167.815 73.7591C167.262 72.8685 166.236 72.2287 164.729 71.8449C163.222 71.461 161.77 71.2256 160.373 71.1488C158.976 71.0669 156.843 71.0259 153.982 71.0259L153.976 71.0362ZM154.195 36.2321V54.2739H163.897C169.042 54.2739 171.612 51.3207 171.612 45.404C171.612 41.4783 170.604 38.9652 168.581 37.8699C166.558 36.7746 162.463 36.2321 156.291 36.2321H154.195Z" fill="#A168AC"/>
<path d="M222.322 88.9551V42.8499C222.322 34.7938 226.271 28.5444 234.174 24.112C242.072 19.6796 253.961 17.402 269.836 17.2792C286.148 17.402 298.256 19.6796 306.159 24.112C314.057 28.5444 318.012 34.7938 318.012 42.8499V88.9551C318.012 92.8808 317.113 96.4585 315.309 99.6779C313.504 102.897 310.771 105.763 307.095 108.271C303.42 110.784 298.444 112.724 292.156 114.101C285.874 115.478 278.651 116.107 270.498 115.985C261.902 116.107 254.46 115.478 248.178 114.101C241.896 112.724 236.914 110.779 233.239 108.271C229.563 105.763 226.83 102.897 225.025 99.6779C223.221 96.4585 222.322 92.886 222.322 88.9551ZM270.164 97.0317C271.561 97.0317 272.788 96.8782 273.858 96.5762C274.921 96.2742 275.765 95.8085 276.391 95.1789C277.017 94.5494 277.509 93.9557 277.879 93.3875C278.244 92.8194 278.505 92.0619 278.651 91.1099C278.797 90.1579 278.888 89.4311 278.924 88.9244C278.961 88.4177 278.979 87.7216 278.979 86.8311V47.4666C278.979 47.226 278.997 46.7398 279.034 46.0079C279.07 45.2811 279.07 44.7335 279.034 44.3701C278.997 44.0067 278.961 43.4693 278.924 42.7629C278.888 42.0566 278.779 41.509 278.59 41.1251C278.408 40.7412 278.183 40.255 277.928 39.6664C277.667 39.0778 277.321 38.6325 276.883 38.3305C276.446 38.0286 275.929 37.701 275.34 37.3581C274.751 37.0151 274.016 36.7695 273.135 36.6313C272.254 36.488 271.257 36.4163 270.158 36.4163C268.615 36.4163 267.272 36.5596 266.136 36.8411C264.994 37.1226 264.095 37.5833 263.433 38.2077C262.77 38.8372 262.218 39.4002 261.78 39.907C261.337 40.4137 261.045 41.1609 260.899 42.1539C260.753 43.1468 260.681 43.8531 260.681 44.2779V86.0992C260.681 86.9897 260.699 87.7012 260.735 88.2232C260.772 88.7504 260.863 89.5182 261.009 90.5316C261.154 91.545 261.428 92.3639 261.835 92.9934C262.236 93.623 262.77 94.2781 263.433 94.9691C264.095 95.66 264.994 96.177 266.136 96.5199C267.272 96.8628 268.615 97.0368 270.158 97.0368L270.164 97.0317Z" fill="#A168AC"/>
</g>
<g opacity="0.82">
<path d="M3.18335 113.047V16.2812H55.7642C69.5063 16.2812 79.6883 17.9498 86.2981 21.292C92.914 24.6342 96.2189 30.3308 96.2189 38.3921V42.5839C96.2189 43.2749 96.0913 44.3446 95.8361 45.8033C95.5749 47.262 95.2104 48.4085 94.7305 49.2377C94.2505 50.0668 93.5336 51.0905 92.5798 52.3035C91.626 53.5165 90.4474 54.5095 89.0502 55.2823C87.6529 56.05 85.8911 56.8024 83.7587 57.5292C81.6263 58.256 79.1658 58.8037 76.3712 59.1671C80.4112 59.6942 83.868 60.6053 86.7355 61.9002C89.603 63.1951 91.7718 64.5617 93.242 65.9999C94.7122 67.4381 95.8665 69.2091 96.717 71.3127C97.5615 73.4163 98.0536 75.1821 98.2055 76.5998C98.3513 78.0176 98.4242 79.7168 98.4242 81.7027C98.4242 86.8056 97.7802 91.1766 96.4923 94.8208C95.2043 98.465 92.9808 101.715 89.8217 104.571C86.6626 107.427 82.2702 109.551 76.6507 110.948C71.0311 112.346 64.0629 113.042 55.7581 113.042H3.18335V113.047ZM41.1047 52.7283H49.0389C50.9465 52.7283 52.5139 52.5082 53.7229 52.0578C54.9379 51.6125 55.8006 50.9727 56.3109 50.1436C56.8273 49.3144 57.1554 48.562 57.3012 47.8967C57.447 47.2262 57.5199 46.4277 57.5199 45.4962V35.8995C57.5199 32.8234 54.7618 31.2828 49.2516 31.2828H41.0926V52.7232L41.1047 52.7283ZM41.1047 67.7913V95.8547C42.8665 95.9366 44.1545 95.9775 44.9625 95.9775C55.0291 95.9775 60.0654 93.5873 60.0654 88.812V76.7227C60.0654 73.6466 59.1298 71.3894 57.2526 69.9512C55.3754 68.513 52.3803 67.7964 48.2674 67.7964H41.1047V67.7913Z" fill="#41B8E7"/>
<path d="M151.339 69.0095V113.047H112.093V16.2812H171.618C177.718 16.2812 182.936 16.7368 187.274 17.6478C191.612 18.5589 195.026 19.7514 197.523 21.2306C200.02 22.7098 201.988 24.6752 203.422 27.1217C204.856 29.5733 205.791 32.0199 206.235 34.4715C206.678 36.9231 206.897 39.8866 206.897 43.3721C206.897 45.1942 206.842 46.6837 206.733 47.8353C206.623 48.9869 206.216 50.4456 205.518 52.2062C204.819 53.9669 203.847 55.4359 202.596 56.6079C201.344 57.7851 199.455 58.9367 196.921 60.0679C194.388 61.2041 191.314 62.0742 187.717 62.6782C191.314 63.0416 194.291 63.7223 196.648 64.7152C198.999 65.7082 200.688 66.9314 201.721 68.3901C202.747 69.8488 203.446 71.1949 203.817 72.4284C204.181 73.6619 204.37 75.049 204.37 76.5896C204.37 92.5841 204.224 104.735 203.926 113.037H166.005V75.3151C166.005 73.8155 165.731 72.6229 165.178 71.7324C164.626 70.8418 163.599 70.202 162.092 69.8181C160.586 69.4343 159.134 69.1988 157.736 69.1221C156.339 69.0402 154.207 68.9992 151.345 68.9992L151.339 69.0095ZM151.558 34.2054V52.2472H161.26C166.406 52.2472 168.975 49.294 168.975 43.3773C168.975 39.4516 167.967 36.9385 165.944 35.8432C163.921 34.7479 159.826 34.2054 153.654 34.2054H151.558Z" fill="#41B8E7"/>
<path d="M219.685 86.9284V40.8232C219.685 32.7671 223.634 26.5177 231.538 22.0853C239.436 17.6529 251.325 15.3753 267.199 15.2524C283.511 15.3753 295.619 17.6529 303.523 22.0853C311.421 26.5177 315.375 32.7671 315.375 40.8232V86.9284C315.375 90.8541 314.476 94.4317 312.672 97.6511C310.868 100.871 308.134 103.737 304.458 106.245C300.783 108.758 295.807 110.698 289.519 112.074C283.238 113.451 276.014 114.081 267.861 113.958C259.265 114.081 251.823 113.451 245.541 112.074C239.259 110.698 234.278 108.753 230.602 106.245C226.927 103.737 224.193 100.871 222.389 97.6511C220.584 94.4317 219.685 90.8592 219.685 86.9284ZM267.527 95.005C268.925 95.005 270.152 94.8514 271.221 94.5495C272.284 94.2475 273.129 93.7817 273.754 93.1522C274.38 92.5226 274.872 91.9289 275.243 91.3608C275.607 90.7927 275.868 90.0352 276.014 89.0832C276.16 88.1312 276.251 87.4044 276.288 86.8977C276.324 86.391 276.342 85.6949 276.342 84.8043V45.4399C276.342 45.1993 276.361 44.7131 276.397 43.9812C276.433 43.2544 276.433 42.7067 276.397 42.3433C276.361 41.9799 276.324 41.4425 276.288 40.7362C276.251 40.0299 276.142 39.4822 275.954 39.0984C275.771 38.7145 275.546 38.2283 275.291 37.6397C275.03 37.0511 274.684 36.6058 274.246 36.3038C273.809 36.0018 273.293 35.6743 272.703 35.3313C272.114 34.9884 271.379 34.7427 270.498 34.6045C269.617 34.4612 268.621 34.3896 267.521 34.3896C265.978 34.3896 264.635 34.5329 263.499 34.8144C262.357 35.0959 261.458 35.5565 260.796 36.181C260.134 36.8105 259.581 37.3735 259.143 37.8802C258.7 38.3869 258.408 39.1342 258.263 40.1271C258.117 41.1201 258.044 41.8264 258.044 42.2512V84.0724C258.044 84.963 258.062 85.6744 258.099 86.1965C258.135 86.7237 258.226 87.4914 258.372 88.5048C258.518 89.5182 258.791 90.3372 259.198 90.9667C259.599 91.5962 260.134 92.2514 260.796 92.9423C261.458 93.6333 262.357 94.1502 263.499 94.4932C264.635 94.8361 265.978 95.0101 267.521 95.0101L267.527 95.005Z" fill="#41B8E7"/>
</g>
<path d="M0 111.22V14.4591H52.5808C66.3229 14.4591 76.5049 16.1277 83.1147 19.4699C89.7306 22.8121 93.0355 28.5087 93.0355 36.5699V40.7618C93.0355 41.4528 92.908 42.5225 92.6528 43.9812C92.3916 45.4399 92.0271 46.5864 91.5471 47.4155C91.0672 48.2447 90.3503 49.2683 89.3965 50.4813C88.4427 51.6944 87.2641 52.6873 85.8668 53.4602C84.4695 54.2279 82.7077 54.9803 80.5753 55.7071C78.4429 56.4339 75.9825 56.9815 73.1879 57.3449C77.2279 57.8721 80.6847 58.7831 83.5522 60.0781C86.4196 61.373 88.5885 62.7396 90.0587 64.1778C91.5289 65.616 92.6832 67.3869 93.5337 69.4905C94.3782 71.5941 94.8702 73.3599 95.0221 74.7777C95.1679 76.1954 95.2408 77.8947 95.2408 79.8806C95.2408 84.9835 94.5969 89.3545 93.3089 92.9986C92.021 96.6428 89.7975 99.8929 86.6384 102.749C83.4793 105.605 79.0869 107.729 73.4673 109.126C67.8478 110.524 60.8795 111.22 52.5747 111.22H0ZM37.9214 50.901H45.8556C47.7632 50.901 49.3306 50.681 50.5396 50.2306C51.7546 49.7853 52.6173 49.1455 53.1276 48.3163C53.644 47.4872 53.972 46.7348 54.1178 46.0694C54.2636 45.3989 54.3365 44.6005 54.3365 43.669V34.0722C54.3365 30.9962 51.5784 29.4556 46.0682 29.4556H37.9092V50.8959L37.9214 50.901ZM37.9214 65.9641V94.0274C39.6832 94.1093 40.9711 94.1503 41.7791 94.1503C51.8457 94.1503 56.882 91.76 56.882 86.9847V74.8954C56.882 71.8193 55.9465 69.5622 54.0692 68.124C52.192 66.6857 49.1969 65.9692 45.084 65.9692H37.9214V65.9641Z" fill="#21130B"/>
<path d="M148.156 67.1822V111.22H108.91V14.4591H168.435C174.534 14.4591 179.753 14.9146 184.091 15.8257C188.428 16.7367 191.843 17.9293 194.339 19.4085C196.836 20.8876 198.805 22.853 200.238 25.2996C201.672 27.7512 202.608 30.1977 203.051 32.6494C203.495 35.101 203.713 38.0645 203.713 41.55C203.713 43.3721 203.659 44.8615 203.549 46.0131C203.44 47.1647 203.033 48.6234 202.334 50.3841C201.636 52.1448 200.664 53.6137 199.412 54.7858C198.161 55.963 196.271 57.1146 193.738 58.2457C191.205 59.382 188.131 60.2521 184.534 60.856C188.131 61.2194 191.107 61.9002 193.465 62.8931C195.816 63.886 197.505 65.1093 198.537 66.568C199.564 68.0267 200.263 69.3728 200.633 70.6063C200.998 71.8398 201.186 73.2268 201.186 74.7674C201.186 90.762 201.04 102.913 200.743 111.214H162.821V73.493C162.821 71.9933 162.548 70.8008 161.995 69.9102C161.442 69.0196 160.416 68.3799 158.909 67.996C157.402 67.6121 155.95 67.3767 154.553 67.2999C153.156 67.218 151.023 67.1771 148.162 67.1771L148.156 67.1822ZM148.374 32.3781V50.4199H158.077C163.222 50.4199 165.792 47.4667 165.792 41.55C165.792 37.6243 164.784 35.1112 162.761 34.0159C160.738 32.9206 156.643 32.3781 150.47 32.3781H148.374Z" fill="#21130B"/>
<path d="M216.496 85.1011V38.9959C216.496 30.9398 220.444 24.6904 228.348 20.258C236.246 15.8256 248.135 13.548 264.01 13.4252C280.322 13.548 292.429 15.8256 300.333 20.258C308.231 24.6904 312.186 30.9398 312.186 38.9959V85.1011C312.186 89.0268 311.287 92.6045 309.483 95.8239C307.678 99.0432 304.944 101.909 301.269 104.417C297.593 106.93 292.618 108.87 286.33 110.247C280.048 111.624 272.825 112.253 264.672 112.131C256.076 112.253 248.633 111.624 242.352 110.247C236.07 108.87 231.088 106.925 227.413 104.417C223.737 101.909 221.003 99.0432 219.199 95.8239C217.395 92.6045 216.496 89.032 216.496 85.1011ZM264.338 93.1777C265.735 93.1777 266.962 93.0242 268.031 92.7222C269.095 92.4202 269.939 91.9545 270.565 91.3249C271.191 90.6954 271.683 90.1017 272.053 89.5335C272.418 88.9654 272.679 88.2079 272.825 87.2559C272.971 86.3039 273.062 85.5771 273.098 85.0704C273.135 84.5637 273.153 83.8676 273.153 82.9771V43.6126C273.153 43.372 273.171 42.8858 273.208 42.1539C273.244 41.4271 273.244 40.8795 273.208 40.5161C273.171 40.1527 273.135 39.6152 273.098 38.9089C273.062 38.2026 272.952 37.655 272.764 37.2711C272.582 36.8872 272.357 36.401 272.102 35.8124C271.841 35.2238 271.494 34.7785 271.057 34.4765C270.62 34.1746 270.103 33.847 269.514 33.5041C268.925 33.1611 268.189 32.9155 267.309 32.7773C266.428 32.634 265.431 32.5623 264.332 32.5623C262.789 32.5623 261.446 32.7056 260.31 32.9871C259.168 33.2686 258.269 33.7293 257.606 34.3537C256.944 34.9832 256.391 35.5462 255.954 36.053C255.511 36.5597 255.219 37.3069 255.073 38.2999C254.927 39.2928 254.854 39.9991 254.854 40.4239V82.2451C254.854 83.1357 254.873 83.8472 254.909 84.3692C254.946 84.8964 255.037 85.6641 255.182 86.6776C255.328 87.691 255.602 88.5099 256.009 89.1394C256.41 89.769 256.944 90.4241 257.606 91.1151C258.269 91.806 259.168 92.323 260.31 92.6659C261.446 93.0088 262.789 93.1828 264.332 93.1828L264.338 93.1777Z" fill="#21130B"/>
</g>
<defs>
<clipPath id="clip0_101_3487">
<rect width="318" height="116" fill="white"/>
</clipPath>
</defs>
</svg>
